<?xml version="1.0" standalone="no"?>
<!DOCTYPE svg PUBLIC "-//W3C//DTD SVG 20010904//EN"
 "http://www.w3.org/TR/2001/REC-SVG-20010904/DTD/svg10.dtd">
<svg version="1.0" xmlns="http://www.w3.org/2000/svg"
 width="768.000000pt" height="768.000000pt" viewBox="0 0 768.000000 768.000000"
 preserveAspectRatio="xMidYMid meet">
<metadata>
Created by potrace 1.16, written by Peter Selinger 2001-2019
</metadata>
<g transform="translate(0.000000,768.000000) scale(0.100000,-0.100000)"
fill="#000000" stroke="none">
<path d="M3442 7664 c-1525 -166 -2791 -1194 -3261 -2647 -52 -160 -104 -369
-130 -529 -24 -138 -51 -379 -51 -450 l0 -47 218 -106 c119 -59 247 -122 284
-140 37 -18 79 -42 95 -52 15 -11 75 -43 133 -73 58 -29 110 -57 116 -62 25
-19 111 -58 140 -64 17 -3 43 -17 57 -30 14 -13 29 -24 32 -24 4 0 84 -38 178
-84 95 -46 182 -87 195 -91 26 -8 37 -26 46 -79 4 -21 9 -389 11 -818 3 -678
2 -780 -11 -785 -13 -5 -58 5 -189 41 -46 13 -122 33 -325 88 -41 11 -124 33
-185 49 -60 17 -128 34 -150 39 -22 5 -49 12 -59 16 -23 9 -25 13 57 -111 82
-123 232 -319 266 -348 16 -13 36 -36 46 -51 15 -23 20 -25 27 -12 5 8 10 32
12 53 9 91 40 100 50 16 3 -32 10 -78 14 -103 7 -44 8 -45 44 -45 20 0 40 -3
44 -8 11 -10 62 -9 69 3 3 6 27 10 52 10 36 0 46 -4 50 -20 6 -22 23 -26 40
-9 9 9 14 5 19 -17 4 -16 14 -37 22 -47 11 -13 16 -50 20 -148 l5 -130 79 -60
c71 -55 82 -60 106 -51 38 15 253 115 277 130 l20 13 -20 -5 c-26 -7 -54 8
-31 17 22 9 22 67 0 67 -8 0 -12 5 -9 10 4 6 11 8 16 5 13 -9 11 9 -3 23 -10
10 -10 17 0 32 19 30 -3 72 -35 64 -16 -4 -23 -2 -23 8 0 7 -10 19 -21 27 -19
11 -21 11 -16 -3 5 -12 -1 -11 -23 6 -36 26 -37 34 -8 49 14 8 18 14 10 17 -7
2 -12 20 -12 43 0 28 -4 39 -15 39 -8 0 -15 4 -15 10 0 5 6 7 14 4 9 -3 16 4
20 22 8 32 -10 57 -24 34 -12 -19 -12 -16 -10 200 5 679 9 863 19 873 14 14
15 40 1 32 -5 -3 -9 27 -9 79 1 79 3 84 26 95 20 9 23 16 17 34 -14 39 -11
109 5 115 22 9 46 -13 47 -44 2 -47 16 -94 28 -94 21 -1 -59 -39 -82 -40 -37
0 -21 -23 29 -41 31 -12 45 -24 49 -40 5 -21 7 -21 13 -6 8 21 27 23 27 2 0
-9 9 -15 25 -15 28 0 34 15 10 24 -12 4 -13 10 -6 24 13 25 14 64 6 457 -6
325 -6 440 -3 994 1 223 3 246 20 263 22 22 23 28 4 28 -19 0 -27 25 -13 39 6
6 25 11 42 11 17 0 35 4 41 9 5 6 36 12 68 15 53 5 64 10 99 46 34 34 37 40
20 40 -13 0 -23 -8 -26 -21 -7 -25 -27 -16 -27 12 0 16 -5 19 -20 14 -14 -5
-20 -2 -20 9 0 9 6 16 14 16 8 0 13 8 12 17 -1 12 9 19 29 23 30 5 50 40 23
40 -8 0 -6 5 5 11 18 10 18 11 0 25 -17 12 -15 14 15 15 17 1 38 2 45 3 6 1
18 6 25 13 14 14 17 57 2 48 -6 -4 -10 5 -10 19 0 14 -4 26 -10 26 -5 0 -10
12 -10 28 0 21 2 24 10 12 12 -18 12 -3 1 25 -5 11 -4 28 1 39 7 13 7 16 -1
12 -7 -5 -11 2 -11 18 0 20 -5 26 -22 26 -14 0 -18 3 -12 8 7 4 9 21 7 40 -5
33 -17 42 -26 20 -3 -8 -6 -7 -6 4 -1 9 4 20 10 24 8 5 6 10 -5 16 -9 5 -16
16 -16 24 0 8 5 12 10 9 6 -3 10 -1 10 4 0 6 -6 11 -13 11 -8 0 -13 14 -14 36
-1 20 -5 39 -10 43 -4 3 -8 30 -9 60 -1 33 -6 56 -15 62 -12 8 -12 10 0 18 11
7 10 12 -5 29 -10 12 -21 19 -26 16 -5 -3 -6 6 -2 20 7 29 -4 33 -38 15 -20
-11 -21 -10 -14 38 3 27 3 53 -1 57 -5 4 -8 26 -8 49 0 33 -3 41 -16 39 -13
-2 -20 12 -30 55 -9 39 -19 58 -29 58 -29 1 -39 15 -33 45 3 19 1 30 -6 30 -6
0 -11 6 -11 13 0 8 -19 -3 -42 -25 -23 -21 -45 -38 -50 -38 -12 0 -10 17 5 32
8 7 14 20 15 28 3 34 16 75 25 82 6 3 10 20 9 36 0 23 3 29 13 25 9 -3 19 5
26 21 7 14 16 26 20 26 4 0 25 18 47 40 21 22 43 40 49 40 5 0 22 14 39 31 16
17 37 35 48 41 29 16 -21 -46 -104 -125 -72 -71 -73 -74 -54 -134 6 -21 24
-15 24 7 0 11 5 20 10 20 6 0 10 6 10 14 0 8 4 17 9 20 5 4 5 -10 1 -32 -4
-20 -10 -59 -14 -87 -5 -48 -5 -49 6 -15 9 28 12 31 16 15 7 -32 22 -42 23
-14 1 13 1 28 0 32 -1 5 3 26 9 48 9 32 14 38 24 30 11 -9 15 -3 19 30 7 53
27 77 23 27 -2 -19 -9 -44 -15 -56 -17 -32 -14 -75 4 -68 8 3 15 0 15 -5 0 -6
-9 -9 -20 -6 -11 3 -20 0 -20 -5 0 -7 -4 -7 -13 0 -10 9 -12 3 -11 -26 0 -20
-4 -40 -10 -44 -6 -4 -7 -10 -3 -14 4 -4 14 1 22 12 14 18 14 17 15 -13 0 -17
-5 -44 -10 -60 -10 -27 -9 -27 6 -8 11 14 14 36 12 75 -2 43 0 55 12 55 8 0
18 -4 22 -10 11 -15 9 -47 -2 -40 -6 4 -10 -11 -10 -37 1 -70 21 -20 27 68 3
41 10 74 14 74 5 0 9 -6 9 -14 0 -8 5 -16 12 -18 8 -3 8 -9 1 -22 -7 -13 -5
-46 7 -113 18 -103 19 -139 1 -135 -6 1 -11 -2 -11 -8 0 -5 5 -10 11 -10 6 0
8 -9 4 -21 -9 -28 4 -111 16 -104 5 4 9 -2 9 -12 0 -13 2 -15 9 -5 5 9 12 -9
18 -50 9 -53 8 -65 -5 -74 -16 -11 -8 -39 9 -29 5 4 9 -3 9 -15 0 -11 11 -33
25 -48 14 -15 25 -21 25 -14 0 6 7 12 15 12 18 0 18 1 0 -43 -8 -20 -11 -38
-7 -41 4 -2 9 5 9 16 1 11 4 23 7 26 13 12 20 -12 18 -62 -1 -29 4 -70 12 -92
8 -21 15 -33 15 -26 1 9 7 7 20 -5 17 -16 19 -30 17 -107 -3 -77 -1 -87 10
-71 7 10 15 23 17 29 11 31 16 -8 8 -70 -6 -48 -5 -73 3 -83 8 -11 8 -15 -1
-18 -7 -3 -13 -14 -12 -26 0 -21 1 -21 9 -2 7 17 9 14 9 -13 1 -18 5 -31 10
-28 4 3 14 -7 20 -22 9 -18 9 -28 2 -30 -6 -2 -11 -13 -11 -23 0 -11 4 -18 9
-15 5 3 8 -33 7 -81 -1 -71 2 -88 16 -97 10 -6 14 -14 9 -21 -5 -5 -4 -38 3
-71 11 -62 11 -62 29 -39 21 29 22 36 2 29 -19 -8 -19 3 -1 22 11 10 15 41 15
115 0 55 3 105 7 110 3 6 1 15 -5 22 -6 8 -6 18 -1 27 14 22 12 88 -2 93 -10
4 -10 8 -2 14 7 5 13 73 16 191 3 120 9 187 16 194 7 7 12 21 12 32 0 11 6 27
14 35 8 9 17 31 19 50 3 18 16 44 28 57 12 13 20 27 16 30 -4 4 5 20 18 36 14
16 25 37 25 47 0 10 11 31 25 47 20 23 22 30 10 32 -19 4 -19 18 0 26 8 3 26
30 40 60 13 29 32 56 40 60 9 3 13 10 10 16 -13 21 23 9 39 -12 9 -13 15 -18
12 -12 -3 6 -10 24 -16 39 -9 23 -13 25 -25 15 -8 -7 -15 -9 -15 -5 0 4 -7 2
-15 -5 -9 -7 -18 -10 -21 -7 -9 9 6 27 23 27 11 0 14 7 10 26 -6 35 11 186 23
198 6 6 10 16 10 24 0 19 21 38 52 45 23 6 28 4 34 -17 3 -13 5 -32 3 -42 -1
-11 3 -32 10 -49 20 -52 21 -54 12 -77 l-8 -23 -7 22 c-4 11 -6 25 -5 29 1 5
1 22 0 38 -1 21 -5 27 -17 22 -10 -4 -13 -2 -8 7 5 8 2 7 -9 -2 -14 -11 -20
-11 -32 -1 -8 7 -15 11 -16 9 -1 -5 -4 -34 -13 -104 -6 -58 -6 -59 10 -35 9
14 27 31 40 37 45 21 65 -44 27 -89 -13 -14 -12 -17 4 -26 10 -6 16 -14 13
-19 -3 -4 4 -8 15 -8 16 0 20 -6 18 -28 -3 -43 31 -18 46 35 20 69 35 99 48
94 7 -3 16 2 21 11 8 14 10 13 15 -1 4 -10 3 -15 -3 -11 -6 3 -10 -4 -10 -16
0 -16 -3 -19 -13 -11 -22 19 -40 -21 -25 -55 7 -16 17 -31 23 -35 5 -4 10 -12
10 -18 0 -6 7 -15 15 -20 13 -9 13 -11 0 -20 -10 -6 -11 -10 -2 -10 6 0 12
-11 12 -24 0 -13 4 -26 9 -28 5 -1 13 -15 16 -30 6 -25 5 -28 -19 -28 -14 0
-26 -5 -26 -11 0 -6 8 -8 19 -4 14 4 24 -3 41 -30 12 -19 26 -33 31 -29 5 3 9
0 9 -5 0 -15 -33 -14 -48 1 -9 9 -12 8 -12 -5 0 -9 7 -17 15 -17 21 0 19 -13
-4 -27 -14 -9 -24 -8 -45 2 -14 8 -26 10 -26 5 0 -4 7 -10 15 -14 16 -6 21
-26 6 -26 -23 0 -174 -149 -177 -174 -1 -12 -7 -20 -13 -18 -7 1 -10 -2 -7 -7
4 -5 -2 -12 -11 -15 -10 -3 -6 -4 10 -2 34 4 36 -11 2 -20 -34 -8 -32 -34 3
-35 17 -1 20 -3 9 -6 -9 -2 -15 -8 -12 -13 3 -5 -4 -11 -15 -15 -11 -4 -18
-11 -15 -16 4 -5 -2 -9 -12 -10 -11 0 -13 -3 -5 -6 7 -3 18 -1 25 5 20 15 47
22 47 11 0 -5 -8 -13 -17 -16 -10 -4 -24 -12 -31 -19 -10 -10 -4 -14 30 -17
l43 -4 -49 -1 c-42 -2 -47 -4 -36 -17 7 -8 9 -15 5 -15 -5 0 0 -9 9 -19 11
-12 14 -21 7 -26 -6 -3 -11 -17 -11 -31 0 -15 -6 -24 -15 -24 -22 0 -18 -18 5
-25 30 -9 24 -30 -15 -51 -11 -6 -21 -23 -23 -38 -2 -14 -9 -26 -15 -27 -7 0
-1 -5 13 -10 20 -8 22 -12 10 -19 -11 -7 -12 -10 -2 -10 7 0 10 -5 6 -11 -3
-6 -17 -9 -30 -6 -13 2 -24 1 -24 -4 0 -12 42 -49 56 -49 7 0 10 -8 7 -20 -3
-11 0 -33 5 -50 9 -24 8 -30 -4 -30 -7 0 -14 6 -14 14 0 9 -7 12 -19 9 -19 -5
-19 -5 0 -24 10 -10 26 -19 34 -19 14 0 14 -26 -1 -78 -5 -18 -3 -21 10 -16 9
3 16 1 16 -5 0 -6 -7 -11 -15 -11 -8 0 -15 -4 -15 -10 0 -19 59 -11 70 10 6
11 16 20 22 20 6 0 16 6 22 14 6 9 36 17 71 20 33 3 75 8 93 12 35 7 42 -2 15
-21 -14 -11 -9 -12 31 -11 27 2 51 8 56 16 7 12 11 11 26 -1 13 -11 18 -11 21
-1 6 16 23 15 23 -2 0 -16 54 -41 70 -31 15 9 100 -16 100 -30 0 -6 -6 -17
-12 -24 -13 -14 -1 -13 92 5 24 5 24 5 -3 -11 -23 -13 -26 -19 -16 -31 6 -8
18 -14 25 -14 8 0 14 -7 14 -15 0 -8 7 -15 15 -15 10 0 15 -10 15 -29 0 -22 6
-30 25 -35 21 -5 25 -12 25 -46 0 -22 5 -40 11 -40 6 0 17 -7 26 -16 12 -11
13 -18 4 -27 -6 -6 -11 -19 -11 -29 0 -11 -7 -18 -20 -18 -11 0 -20 5 -20 10
0 6 -4 10 -10 10 -5 0 -10 -18 -10 -40 0 -34 -3 -40 -21 -40 -18 0 -19 -3 -10
-14 10 -12 7 -18 -16 -32 -15 -9 -40 -25 -55 -35 -15 -11 -38 -19 -52 -19 -14
0 -31 -9 -40 -22 -13 -18 -18 -19 -30 -8 -13 10 -17 9 -22 -4 -3 -9 -3 -23 0
-32 5 -13 9 -14 22 -4 10 9 18 10 26 2 15 -15 -1 -35 -23 -29 -24 6 -33 -6
-54 -71 -11 -34 -21 -49 -26 -41 -10 16 -39 -12 -39 -38 0 -24 -19 -43 -43
-43 -10 0 -16 -4 -13 -9 3 -5 0 -25 -7 -46 -11 -30 -10 -56 1 -143 8 -59 20
-110 26 -114 8 -6 7 -10 -2 -16 -10 -7 -10 -11 1 -21 8 -6 18 -32 22 -57 4
-27 10 -42 17 -38 6 4 8 -2 3 -17 -5 -18 -4 -20 4 -9 8 12 13 12 23 2 9 -9 9
-12 -1 -12 -8 0 -11 -12 -9 -37 3 -31 7 -37 28 -38 14 -1 27 1 30 6 3 5 5 -21
5 -56 -1 -54 2 -66 17 -71 26 -8 24 -54 -2 -54 -12 0 -20 -7 -20 -17 0 -14 2
-15 9 -5 11 17 21 17 32 0 13 -20 11 -48 -6 -65 -15 -15 -11 -38 5 -28 10 6
24 -31 15 -44 -3 -5 -1 -12 4 -16 6 -3 8 -12 5 -20 -3 -8 4 -26 15 -41 12 -15
21 -40 21 -55 0 -17 5 -29 13 -29 16 0 10 -71 -7 -83 -7 -6 -5 -7 5 -4 12 4
18 -2 22 -21 6 -29 0 -42 -11 -27 -13 18 -42 38 -42 28 0 -5 9 -19 20 -31 14
-15 19 -29 14 -47 -3 -14 -11 -22 -16 -19 -5 4 -8 15 -5 25 3 11 1 17 -4 13
-5 -3 -9 2 -9 10 0 9 -4 16 -9 16 -19 0 -22 41 -7 72 9 17 14 33 11 36 -2 3
-7 -2 -11 -11 -3 -9 -12 -13 -20 -10 -8 3 -14 -1 -14 -10 0 -9 -5 -28 -11 -44
l-12 -28 -9 34 c-6 23 -6 37 1 44 16 16 13 28 -6 25 -10 -2 -24 -14 -30 -27
-16 -28 -16 -34 -3 -26 12 7 14 -8 3 -19 -5 -4 -8 -25 -8 -46 0 -27 4 -36 14
-32 10 4 12 -1 6 -16 -4 -13 -2 -23 4 -23 6 -1 15 -2 21 -3 23 -3 51 -37 45
-56 -9 -27 13 -63 32 -55 15 5 73 -45 73 -63 0 -4 9 -15 20 -25 15 -13 18 -22
12 -35 -5 -9 -7 -24 -4 -32 5 -13 3 -13 -12 -1 -26 22 -32 4 -6 -19 22 -19 24
-19 36 -2 11 14 13 14 14 2 1 -12 3 -12 14 2 15 20 26 23 26 7 0 -6 7 -17 15
-25 13 -13 12 -17 -5 -34 -22 -22 -26 -40 -9 -40 6 0 9 -6 6 -14 -3 -8 2 -16
14 -19 17 -5 18 -3 8 9 -14 17 -6 29 15 21 9 -4 13 -13 10 -22 -3 -8 -1 -15 5
-15 6 0 11 -6 11 -14 0 -8 9 -22 21 -30 23 -16 18 -36 -10 -36 -10 0 -23 -12
-29 -26 -13 -27 -25 -27 -82 0 -28 13 -40 46 -16 46 9 0 16 -6 16 -14 0 -21
20 -30 33 -17 8 8 8 11 -1 11 -7 0 -12 7 -12 15 0 11 11 15 40 15 22 0 40 5
40 11 0 6 -17 9 -43 8 -24 -2 -49 1 -56 6 -9 5 -18 2 -26 -8 -20 -27 -50 -20
-118 28 -63 44 -87 54 -87 37 0 -12 70 -76 100 -92 23 -13 23 -13 -25 -32 -26
-10 -54 -17 -62 -14 -19 8 -16 -11 6 -33 18 -18 18 -20 3 -24 -9 -2 -3 -3 14
0 28 3 32 0 43 -37 10 -36 15 -40 34 -34 12 3 19 3 15 -1 -11 -11 23 -34 49
-35 16 0 21 -4 17 -15 -4 -9 0 -15 9 -15 8 0 17 -7 21 -15 8 -21 5 -20 -61 23
-32 21 -85 52 -118 68 -33 17 -86 45 -117 62 -32 18 -58 28 -58 22 0 -6 8 -14
18 -17 9 -4 24 -15 33 -25 9 -10 24 -18 33 -18 9 0 16 -4 16 -10 0 -5 17 -18
38 -29 73 -38 262 -170 252 -176 -6 -4 -22 2 -37 12 -14 10 -40 27 -57 38 -18
11 -42 30 -55 41 -12 12 -36 24 -52 26 -31 5 -40 -8 -13 -19 8 -3 20 -16 24
-29 6 -14 15 -21 23 -18 19 7 39 -19 31 -40 -14 -38 -62 -39 -68 -2 -1 9 -14
23 -29 31 -28 14 -36 8 -16 -12 8 -8 -1 -11 -34 -11 -41 1 -46 4 -44 22 2 19
-4 21 -50 24 -41 2 -51 6 -46 18 4 11 -4 14 -36 14 -34 0 -43 4 -50 22 -5 14
-10 17 -15 10 -4 -7 -17 -12 -29 -12 -33 0 -44 40 -46 165 -2 139 -8 170 -27
154 -8 -6 -14 -18 -14 -26 0 -8 -4 -12 -8 -9 -25 15 -92 -96 -92 -152 0 -16
-3 -32 -7 -36 -4 -4 -7 -26 -6 -49 1 -23 -1 -32 -4 -20 -2 12 -12 25 -23 28
-26 8 -31 40 -13 98 24 80 40 107 106 172 60 58 61 59 68 35 6 -20 7 -16 8 18
1 41 0 42 -21 31 -73 -39 -188 -201 -188 -264 0 -12 -5 -26 -11 -32 -9 -9 -6
-23 9 -55 12 -24 23 -61 25 -83 3 -22 2 -31 0 -20 -9 40 -21 36 -19 -6 1 -41
-1 -44 -29 -49 -21 -4 -26 -8 -17 -14 22 -13 74 -137 64 -150 -5 -6 -6 -31 -2
-56 7 -44 8 -44 10 -10 2 33 3 33 10 10 4 -14 8 -50 9 -81 l1 -56 -46 -6 c-25
-2 -51 -10 -57 -17 -9 -9 -6 -10 14 -5 17 4 30 1 38 -9 11 -13 11 -16 -3 -16
-11 0 -16 -9 -16 -30 0 -26 4 -30 28 -31 21 -1 22 -2 7 -6 -24 -6 -37 -23 -30
-40 2 -8 -4 -13 -15 -13 -11 0 -20 -6 -20 -13 0 -10 15 -12 59 -9 l59 4 10
-33 c6 -19 10 -41 10 -49 -1 -16 16 -106 27 -152 7 -26 6 -27 -28 -21 -27 4
-37 1 -48 -14 -8 -11 -21 -22 -29 -26 -11 -4 -9 -6 5 -6 12 -1 26 4 32 10 6 6
19 9 29 7 14 -3 5 -10 -28 -25 -57 -26 -67 -51 -12 -28 20 8 49 15 64 15 24 0
28 -5 33 -33 3 -17 1 -36 -4 -41 -6 -6 -9 -5 -9 3 0 8 -7 10 -19 6 -12 -3 -21
0 -24 9 -7 19 6 28 27 20 9 -3 16 -1 16 5 0 6 -14 11 -31 11 -29 0 -31 -2 -26
-29 6 -26 2 -32 -29 -48 -20 -10 -45 -33 -57 -52 l-21 -34 32 6 c17 4 51 16
74 27 45 22 83 26 93 10 6 -9 -7 -14 -27 -11 -4 0 -31 -10 -60 -24 -29 -14
-43 -22 -30 -19 12 3 22 1 22 -3 0 -5 35 -18 78 -28 42 -10 83 -20 90 -23 11
-4 2 22 -30 78 -25 46 -24 52 11 43 19 -5 22 -11 17 -33 -3 -20 1 -33 14 -45
11 -10 20 -24 20 -31 0 -22 17 -25 23 -4 3 11 2 18 -2 16 -13 -8 -40 50 -34
72 3 12 8 22 10 22 12 0 142 -45 186 -64 42 -18 49 -26 58 -64 12 -43 39 -59
39 -22 0 11 -5 20 -11 20 -5 0 -7 5 -3 11 4 7 9 8 13 1 3 -5 15 -11 26 -13 11
-2 24 -14 30 -26 13 -30 38 -33 380 -39 238 -5 331 -3 452 10 273 29 512 77
753 152 108 33 117 38 135 72 20 34 40 45 40 20 0 -7 -5 -12 -11 -11 -5 1 -16
-8 -23 -19 -11 -18 -11 -20 4 -14 9 3 20 6 24 6 4 0 13 16 21 35 8 19 17 35
22 35 12 0 10 -8 -8 -35 -10 -16 -12 -25 -5 -25 6 0 19 17 28 38 9 20 25 55
35 78 10 22 18 48 18 57 0 9 5 19 11 23 12 7 10 -10 -8 -71 -11 -39 13 0 27
43 16 52 29 63 93 82 28 8 52 21 55 28 5 16 -17 15 -50 -2 -28 -15 -28 -14
-28 15 0 23 4 29 21 29 11 0 18 4 14 9 -3 6 12 11 32 13 30 2 39 8 41 25 4 26
-27 36 -45 13 -11 -13 -12 -12 -13 7 0 25 25 34 57 20 16 -7 21 -16 18 -36 -4
-35 -16 -64 -29 -73 -6 -4 -6 -11 2 -21 7 -7 10 -16 7 -19 -3 -3 -12 -29 -19
-59 -8 -30 -18 -63 -22 -73 -5 -13 -4 -17 3 -13 6 4 17 31 23 59 7 29 21 70
31 90 11 21 19 45 19 54 0 9 9 44 19 78 18 58 39 157 63 293 11 64 28 83 54
62 11 -9 11 -15 -1 -32 -8 -12 -15 -33 -15 -47 0 -14 -4 -30 -10 -36 -5 -5
-10 -27 -11 -49 -2 -23 -10 -47 -20 -55 -10 -9 -20 -34 -24 -55 -4 -22 -11
-55 -17 -73 -8 -28 -7 -35 14 -52 19 -16 20 -19 6 -20 -10 0 -18 -7 -18 -15 0
-8 -7 -15 -17 -15 -14 0 -14 -2 -1 -17 21 -25 57 -103 48 -103 -5 0 -15 -3
-23 -6 -12 -4 -14 0 -10 18 3 16 -1 13 -15 -12 -11 -19 -18 -36 -17 -38 2 -2
21 6 44 18 43 21 56 55 26 66 -26 10 -18 32 10 26 14 -2 25 -8 25 -13 0 -5 7
-9 17 -9 14 0 14 -3 -3 -22 l-19 -22 30 19 c17 10 51 29 78 42 26 13 47 30 47
38 0 9 6 12 16 8 14 -5 14 -3 3 16 -8 11 -17 21 -20 21 -10 0 -18 39 -9 45 4
3 20 -11 34 -30 26 -33 46 -45 46 -27 0 5 -14 22 -30 38 -45 43 -51 63 -35
130 7 33 16 85 20 116 6 49 10 58 27 58 16 0 18 3 9 14 -9 10 -9 31 -1 81 6
37 8 75 5 85 -3 9 1 23 10 30 10 8 12 17 5 29 -5 10 -9 68 -9 131 0 74 -4 116
-11 120 -8 5 -7 9 4 13 9 4 16 13 16 21 0 17 -52 60 -90 75 -25 10 -25 10 5
11 17 1 24 4 17 7 -6 2 -10 9 -6 14 3 5 -2 9 -10 9 -9 0 -16 -6 -16 -12 0 -7
-8 -1 -17 12 -9 14 -20 27 -24 30 -5 3 -10 23 -12 45 l-5 40 34 -39 c31 -35
34 -37 34 -17 0 17 4 21 15 17 14 -5 13 -2 0 24 -9 17 -20 30 -25 30 -14 0
-13 -13 2 -28 6 -6 9 -14 6 -17 -7 -7 -58 42 -58 55 0 13 -14 12 -28 -2 -9 -9
-13 -7 -18 6 -4 10 -2 21 5 26 10 6 10 12 0 28 -21 33 -3 37 25 6 13 -16 28
-26 32 -21 14 13 -38 57 -64 55 -14 -2 -27 3 -30 11 -3 9 1 11 17 6 11 -3 21
-2 21 3 0 12 -25 33 -36 31 -21 -4 -28 2 -14 11 13 8 11 11 -7 16 -21 6 -41
40 -29 51 23 23 200 -191 371 -450 79 -118 108 -149 60 -62 -37 65 -187 286
-247 363 -47 60 -49 64 -31 77 16 13 16 14 1 15 -9 0 -18 -6 -21 -12 -3 -8
-28 10 -65 47 -58 58 -79 90 -63 100 4 2 6 18 3 35 -2 17 3 46 13 67 16 33 19
35 26 18 7 -18 8 -18 9 5 l2 25 8 -25 c7 -24 8 -24 15 -5 5 11 13 23 18 27 6
3 10 20 9 37 0 17 4 33 9 36 5 4 9 1 9 -5 0 -6 4 -8 10 -5 6 3 10 1 10 -4 0
-22 20 -10 21 12 1 17 3 16 8 -8 l7 -30 12 37 c20 56 32 61 82 37 23 -11 53
-19 65 -17 17 4 27 -3 39 -24 11 -17 13 -28 6 -28 -11 0 -91 -33 -123 -51 -13
-7 -23 -7 -32 1 -10 8 -19 8 -34 -2 -24 -14 -29 -33 -7 -25 8 3 16 -2 19 -14
7 -25 33 -34 60 -21 12 6 40 16 61 23 34 10 41 9 51 -5 15 -20 25 -21 25 -1 0
31 18 13 27 -27 10 -39 11 -40 12 -13 1 26 3 28 12 12 8 -13 8 -26 -1 -46 -9
-23 -16 -27 -40 -23 -21 3 -30 0 -30 -9 0 -10 -16 -14 -60 -14 -34 0 -64 -5
-72 -12 -9 -10 2 -13 59 -13 48 0 73 4 76 13 4 9 7 9 18 0 7 -7 25 -13 39 -13
26 0 50 -16 50 -33 0 -5 -11 -7 -24 -5 -16 3 -27 0 -30 -9 -3 -8 -16 -13 -28
-12 -13 1 -30 -1 -38 -4 -8 -3 -55 -8 -104 -12 -67 -5 -93 -11 -102 -23 -17
-23 5 -36 24 -14 7 9 10 11 6 3 -6 -11 -1 -13 26 -8 18 4 83 10 144 13 132 8
133 7 140 -87 20 -248 27 -370 21 -379 -3 -5 -2 -10 4 -10 5 0 9 -9 8 -20 -1
-22 -35 -27 -67 -10 -17 9 -18 8 -9 -17 7 -21 16 -28 37 -29 15 -1 77 -19 137
-41 61 -22 144 -53 185 -68 41 -15 91 -36 111 -46 34 -17 49 -16 49 1 0 4 -15
13 -32 20 -18 7 -62 25 -97 41 -50 23 -61 32 -52 43 8 10 8 35 1 92 -23 172
-38 298 -45 384 -2 19 -13 103 -24 186 -19 135 -29 229 -48 457 -3 37 -10 67
-14 67 -5 0 -9 36 -9 80 0 44 -4 80 -9 80 -4 0 -9 31 -10 68 -1 38 -4 79 -6
93 -2 13 -6 56 -9 95 -3 39 -10 102 -16 140 -6 38 -11 96 -13 130 -2 59 -3 61
-29 61 -18 0 -28 -6 -28 -15 0 -9 -3 -13 -6 -9 -4 3 -3 18 0 32 5 20 11 25 26
20 14 -5 20 -2 20 9 0 9 -7 16 -16 16 -9 0 -14 6 -11 13 2 6 14 11 25 11 18
-1 22 4 22 27 0 16 5 29 10 29 6 0 10 12 9 28 l-1 27 -8 -25 c-4 -14 -9 -18
-9 -10 -1 12 -5 11 -16 -4 -8 -11 -17 -17 -20 -14 -7 7 6 98 14 98 4 0 5 15 3
34 -2 19 1 43 7 53 6 10 11 13 11 5 0 -7 5 -10 11 -7 7 5 8 -5 4 -32 -5 -27
-4 -34 4 -23 8 12 11 12 17 -3 10 -28 -2 -171 -15 -175 -6 -2 -11 -10 -11 -18
0 -8 -4 -14 -10 -14 -5 0 -10 -7 -10 -16 0 -24 48 30 66 73 17 40 18 135 2
179 -12 34 -12 32 72 259 19 50 43 164 59 280 8 58 9 58 10 15 1 -48 -21 -188
-39 -255 -16 -55 -73 -209 -80 -215 -10 -8 -9 -51 1 -45 5 4 9 15 9 25 0 10 5
22 10 25 6 3 10 15 10 26 0 10 5 19 10 19 6 0 10 9 10 20 0 11 4 28 9 38 44
88 93 386 89 544 -1 67 -2 69 -8 28 -6 -36 -8 -26 -10 55 -1 55 -1 108 -1 118
3 23 -35 72 -42 55 -4 -8 -6 -7 -6 4 -1 20 -33 40 -53 34 -53 -17 -68 -16 -68
3 0 15 9 22 38 26 57 10 61 13 14 14 -23 1 -51 -4 -62 -11 -10 -7 -22 -9 -26
-6 -10 11 -7 153 4 174 6 10 13 27 16 37 3 10 10 16 15 13 5 -3 8 20 7 52 -1
31 4 69 11 84 7 15 13 35 13 45 0 10 5 25 10 33 8 12 12 13 19 2 5 -9 10 7 14
43 3 32 13 65 23 76 13 15 16 30 11 69 -5 39 -3 51 10 59 12 6 15 18 10 50 -5
37 -3 41 10 29 14 -12 15 -8 9 34 -6 39 -4 48 11 56 13 8 17 21 16 52 -2 39
-1 41 12 24 14 -18 14 -18 15 4 0 12 5 22 10 22 6 0 10 -6 10 -14 0 -8 6 -17
13 -20 10 -5 10 -7 0 -12 -20 -9 -15 -28 18 -70 28 -35 30 -36 25 -12 -2 14
-9 36 -16 47 -6 12 -8 26 -5 32 4 5 1 16 -5 24 -6 8 -10 24 -8 36 3 22 4 22
21 4 18 -18 19 -17 15 11 -2 20 -8 28 -19 26 -11 -1 -18 8 -23 30 -7 37 6 57
28 39 12 -10 15 -5 21 29 4 23 4 44 1 47 -3 4 -6 -3 -6 -15 0 -12 -4 -22 -9
-22 -13 0 3 53 17 58 7 2 12 -2 12 -8 0 -7 8 -9 20 -5 17 5 20 2 21 -27 1 -18
3 -25 6 -16 3 14 7 15 17 5 8 -6 11 -17 9 -24 -3 -6 4 -16 14 -21 21 -12 48
-93 40 -123 -3 -12 -2 -31 3 -43 19 -47 40 -135 50 -206 25 -179 24 -174 43
-178 16 -3 21 46 19 201 0 59 4 66 27 45 10 -11 15 -10 23 3 10 14 14 14 44 0
27 -12 32 -19 28 -37 -6 -24 16 -38 52 -35 17 2 22 -5 27 -35 8 -46 -7 -74
-37 -74 -13 0 -40 -11 -60 -25 -20 -14 -45 -25 -54 -26 -9 0 4 -6 29 -13 60
-16 83 -39 82 -82 -1 -32 18 -51 37 -39 12 7 26 -21 35 -70 4 -22 11 -46 17
-52 7 -9 7 -17 -1 -26 -8 -10 -7 -17 2 -26 11 -11 29 -72 44 -143 3 -16 12
-28 20 -28 11 0 14 12 12 53 -1 28 3 64 9 79 8 20 8 28 -1 32 -7 3 0 3 16 0
23 -5 27 -3 27 18 0 31 45 58 98 58 45 0 60 19 33 44 -15 14 -22 13 -71 -11
-30 -14 -70 -29 -88 -33 -33 -8 -34 -8 -26 18 4 15 7 36 5 47 -1 11 -3 38 -5
60 -4 48 -26 115 -39 115 -4 0 -7 21 -5 46 l3 47 55 18 c30 10 62 18 70 18 9
1 21 6 27 12 18 18 -26 50 -51 37 -10 -5 -34 -10 -52 -10 -21 0 -38 -6 -43
-16 -5 -9 -13 -14 -16 -10 -9 9 26 68 41 68 6 0 18 10 27 23 13 19 18 20 34 9
33 -23 45 -25 54 -11 6 10 9 7 9 -11 0 -32 15 -56 24 -41 4 6 12 9 17 6 15
-10 10 -25 -8 -25 -13 0 -14 -3 -5 -12 7 -7 12 -20 12 -30 0 -10 7 -18 15 -18
17 0 30 -41 22 -71 -3 -11 0 -35 8 -52 7 -18 12 -56 11 -85 -1 -36 3 -52 12
-52 7 0 12 -15 12 -40 0 -22 -5 -40 -11 -40 -5 0 -3 -10 5 -22 9 -12 16 -32
16 -43 0 -11 9 -45 19 -77 11 -31 19 -76 20 -100 0 -23 7 -72 15 -108 9 -36
16 -82 16 -102 0 -20 5 -49 10 -64 8 -20 8 -36 -1 -56 -10 -26 -9 -31 9 -43
16 -12 22 -33 31 -102 6 -49 16 -117 21 -153 5 -36 12 -90 16 -121 l6 -55 -39
0 c-37 0 -74 -6 -258 -39 -89 -16 -119 -29 -112 -48 3 -10 94 -17 103 -7 3 3
15 6 27 7 12 1 51 6 87 12 121 21 122 21 151 0 20 -14 33 -37 43 -72 22 -74
48 -224 44 -250 -1 -12 1 -28 6 -35 13 -21 46 -163 47 -202 0 -19 6 -51 13
-70 13 -34 13 -33 36 88 12 67 20 129 16 137 -3 8 -1 17 4 20 14 9 12 65 -2
65 -6 0 -3 9 8 21 15 16 16 24 7 39 -10 14 -9 19 2 24 9 3 15 19 15 41 0 35
-2 36 -32 35 -79 -5 -80 -4 -73 43 4 24 2 62 -5 85 -6 23 -13 84 -15 135 -2
51 -9 106 -15 122 -6 16 -9 40 -5 52 4 17 -2 31 -20 49 -19 19 -23 29 -16 38
6 7 8 16 5 19 -4 3 -8 23 -9 44 -2 21 -5 44 -7 51 -1 8 6 19 17 25 11 7 22 15
25 18 3 3 28 9 55 13 64 9 85 15 85 26 0 13 -54 23 -58 11 -5 -15 -105 -14
-120 1 -17 17 -15 48 3 48 8 0 15 5 15 10 0 6 -4 10 -9 10 -5 0 -7 9 -4 20 4
15 9 18 18 10 10 -8 14 -3 17 23 3 31 2 33 -24 29 -25 -4 -28 -1 -34 37 -4 23
-11 41 -15 41 -5 0 -4 9 3 20 11 18 10 23 -12 40 -14 11 -19 20 -12 20 6 0 12
7 12 15 0 8 6 12 14 9 23 -9 31 45 9 62 -16 12 -16 15 -3 24 19 13 60 13 60 0
0 -5 7 -10 16 -10 10 0 14 -5 10 -16 -3 -8 -2 -12 4 -9 5 3 12 -6 16 -20 3
-14 10 -25 15 -25 14 0 11 48 -3 53 -10 4 -10 8 1 15 10 7 12 20 7 47 -7 36
-8 37 -44 30 -49 -8 -115 -7 -144 4 l-23 8 23 7 c12 4 22 12 22 17 0 5 11 9
24 9 14 0 28 5 31 10 3 6 24 10 47 10 39 0 40 1 33 28 -3 15 -13 40 -21 56 -8
16 -14 39 -14 51 0 23 -60 205 -106 323 -26 66 -31 72 -51 67 -13 -3 -23 -1
-23 5 0 5 4 10 9 10 30 0 15 47 -70 217 -51 101 -96 186 -102 190 -5 3 -12 1
-16 -4 -12 -19 -91 -63 -118 -66 -16 -2 -36 -7 -45 -11 -10 -5 -26 -5 -35 -1
-10 4 -13 9 -7 11 6 3 8 18 6 34 -3 23 0 30 12 30 9 0 16 3 16 8 0 24 105 36
153 17 10 -4 20 -6 22 -4 8 9 -79 139 -94 139 -9 0 -38 -6 -66 -14 -27 -7 -55
-11 -62 -9 -6 2 -14 -1 -18 -6 -3 -6 -15 -11 -26 -11 -29 0 -16 15 35 40 24
11 47 27 49 35 4 10 15 11 41 5 41 -9 43 -5 17 30 -17 21 -21 22 -36 10 -15
-12 -19 -12 -31 5 -16 22 -19 55 -4 55 21 0 9 30 -20 52 -16 12 -30 28 -30 36
0 7 -26 47 -57 88 -40 51 -64 74 -79 74 -12 0 -27 7 -34 15 -9 10 -9 15 -1 15
19 0 12 26 -14 50 -22 21 -25 21 -25 5 0 -10 -7 -23 -17 -30 -9 -7 -13 -17 -9
-23 10 -17 24 -15 29 6 3 9 5 3 6 -13 0 -17 6 -36 12 -42 8 -8 7 -13 -1 -18
-7 -4 -16 -1 -21 6 -4 8 -16 14 -25 14 -10 0 -19 6 -21 13 -3 6 0 12 6 12 6 0
11 5 11 11 0 5 -10 9 -22 7 -16 -2 -22 3 -23 20 -1 13 -8 28 -16 33 -8 5 -11
9 -6 9 4 0 16 -5 27 -12 26 -17 37 -2 16 21 -10 11 -16 26 -13 33 3 8 6 5 6
-6 1 -11 4 -17 7 -13 16 16 -45 101 -138 193 -611 601 -1417 976 -2293 1069
-175 18 -611 18 -783 -1z m-1566 -1419 c10 -24 131 -85 172 -86 30 0 33 -2 17
-9 -28 -12 -103 -12 -110 0 -3 6 -13 10 -21 10 -10 0 -5 -9 14 -25 17 -14 37
-25 46 -25 9 0 16 -4 16 -9 0 -15 -22 -27 -85 -49 -33 -11 -59 -23 -58 -26 1
-3 0 -13 -2 -21 -3 -8 -7 -22 -10 -31 -3 -8 -13 -14 -22 -12 -18 4 -19 8 -9
93 3 22 5 68 5 103 1 49 4 62 16 62 9 0 18 -7 21 -15 4 -8 14 -15 23 -15 14 1
14 2 -1 11 -10 5 -18 17 -18 26 0 11 -7 14 -25 11 -17 -4 -25 -1 -25 8 0 19
49 18 56 -1z m3248 -256 c46 -54 32 -149 -23 -149 -37 0 -68 35 -77 87 -5 36
-3 45 19 67 34 34 50 33 81 -5z m-1310 -212 c38 5 44 3 49 -16 3 -11 10 -21
16 -21 15 0 14 27 -1 33 -7 2 -10 7 -7 11 3 4 17 -2 30 -13 13 -11 18 -20 12
-21 -7 0 -13 -9 -13 -21 0 -11 -4 -18 -9 -15 -4 3 -7 -20 -4 -52 3 -41 1 -53
-6 -42 -9 13 -11 13 -11 -2 0 -14 9 -18 38 -19 31 -1 27 -3 -28 -14 -63 -13
-138 -19 -113 -8 10 3 10 10 2 24 -5 11 -7 29 -4 40 4 11 3 39 -1 62 -8 42 -8
42 -15 12 -6 -29 -7 -29 -8 9 -1 29 2 37 13 33 10 -4 13 1 10 16 -2 12 -2 17
1 11 4 -7 22 -10 49 -7z m445 -186 c10 -6 12 -20 8 -47 -4 -25 -3 -34 4 -27 5
5 11 23 13 38 2 22 9 29 27 31 46 5 364 -18 373 -27 6 -5 -1 -9 -17 -9 -15 0
-27 -4 -27 -10 0 -5 31 -8 74 -7 74 2 89 12 31 20 -24 3 -22 4 12 6 25 0 43
-4 46 -11 4 -10 7 -10 14 0 7 9 17 10 41 1 18 -6 38 -9 45 -6 25 9 44 -17 44
-60 0 -40 -1 -41 -29 -38 -20 3 -27 1 -21 -8 7 -12 5 -68 -3 -76 -2 -3 -13 5
-24 17 -12 12 -26 22 -33 22 -15 0 -48 -36 -40 -44 3 -3 -1 -8 -9 -11 -9 -4
-14 -14 -11 -24 4 -17 -29 -51 -49 -51 -5 0 -8 38 -8 85 l0 85 -40 0 c-41 0
-57 -21 -25 -34 19 -7 19 -33 0 -66 -14 -25 -14 -25 -15 -2 0 13 -6 22 -15 22
-11 0 -15 11 -15 39 0 36 -3 40 -27 44 -20 3 -15 4 15 6 40 1 42 3 42 31 0 28
-2 30 -40 30 -22 0 -40 5 -40 10 0 6 -19 11 -42 11 -40 1 -38 2 17 10 91 13
97 18 20 14 -52 -2 -60 -1 -30 5 27 5 -5 7 -95 8 -90 1 -130 -2 -120 -8 8 -5
32 -10 53 -10 25 0 37 -4 37 -14 0 -8 6 -16 14 -18 12 -2 11 -8 -4 -26 -11
-13 -24 -21 -30 -17 -15 9 -12 25 5 25 8 0 15 5 15 10 0 6 -9 10 -20 10 -11 0
-20 5 -20 10 0 6 -14 10 -31 10 -17 0 -28 -4 -24 -10 3 -5 1 -10 -4 -10 -8 0
-7 -7 1 -20 14 -22 2 -42 -13 -20 -8 13 -12 11 -26 -7 -8 -13 -21 -23 -27 -23
-16 1 -111 73 -113 88 -4 19 27 14 34 -5 11 -28 30 -43 55 -42 l23 0 -23 9
c-12 5 -30 23 -40 40 l-17 31 -80 -7 c-85 -7 -172 -21 -142 -23 10 -1 15 -5
12 -11 -3 -5 3 -10 14 -10 12 0 21 -5 21 -11 0 -6 -8 -8 -19 -4 -11 3 -22 1
-26 -5 -3 -5 -3 -10 2 -10 19 -1 33 -18 27 -33 -8 -22 -30 -22 -43 1 -6 9 -11
11 -11 5 0 -7 -10 -13 -22 -14 -22 0 -22 -1 -3 -8 11 -5 23 -7 28 -4 4 2 7 -3
7 -11 0 -24 -85 -22 -95 2 -6 16 -7 16 -16 0 -12 -22 -29 -23 -29 -3 0 8 -6
15 -14 15 -8 0 -16 7 -20 15 -6 17 19 21 29 5 9 -14 25 -12 25 3 0 14 -28 40
-51 46 -8 2 -36 7 -64 10 l-50 7 65 7 c36 4 83 10 105 13 22 2 92 11 155 19
63 8 135 15 160 15 25 0 52 5 60 10 19 12 60 13 79 1z m1823 -691 c9 -45 14
-89 38 -345 11 -115 27 -262 36 -325 32 -231 7 -634 -60 -955 -8 -38 -26 -144
-41 -235 -15 -91 -37 -199 -51 -240 -28 -87 -108 -246 -122 -243 -6 1 -13 -8
-16 -21 -5 -22 -49 -60 -71 -61 -5 0 -9 -9 -8 -20 1 -10 -5 -28 -13 -39 -8
-11 -14 -17 -14 -13 0 4 -9 3 -20 -3 -14 -8 -19 -17 -15 -30 3 -10 2 -21 -3
-24 -6 -3 -16 14 -24 37 -13 41 -13 44 10 62 13 11 32 37 43 58 11 20 24 37
29 37 6 0 10 5 10 11 0 6 -7 8 -16 5 -8 -3 -12 -2 -9 4 3 6 15 10 25 10 12 0
22 9 26 25 3 13 12 29 19 35 8 6 11 18 8 26 -3 9 0 14 7 12 7 -2 15 3 17 10 3
6 -3 12 -12 12 -14 0 -15 3 -6 13 6 8 8 16 5 19 -3 3 -1 9 5 13 6 3 11 1 11
-4 0 -19 17 -12 35 15 16 24 16 26 0 38 -16 12 -16 13 0 30 10 9 15 20 11 23
-3 3 -1 13 6 20 9 11 9 16 0 22 -9 5 -5 14 13 31 18 17 24 31 20 47 -3 12 -1
25 5 28 16 10 12 35 -5 29 -9 -4 -15 -19 -15 -36 0 -41 -32 -68 -82 -68 -35 0
-38 -2 -28 -20 18 -34 -4 -98 -46 -137 -24 -21 -45 -33 -56 -30 -10 3 -18 1
-18 -4 0 -5 -6 -9 -12 -9 -7 0 7 20 32 44 60 58 70 77 70 135 0 40 4 53 22 65
13 9 24 12 28 6 11 -17 50 1 50 23 0 16 -3 18 -12 9 -15 -15 -28 -15 -28 -1 0
14 22 34 39 34 8 0 15 15 17 40 2 22 9 44 16 50 12 9 15 29 19 123 1 12 7 22
14 22 8 0 11 15 7 50 -4 41 -2 50 12 50 10 0 16 9 16 25 0 14 5 25 10 25 6 0
10 7 10 16 0 10 -6 13 -19 9 -10 -3 -29 -1 -42 5 -22 10 -22 10 -2 6 34 -6 47
19 48 95 1 73 7 88 28 71 8 -7 17 -9 20 -5 13 12 7 23 -13 23 -22 0 -26 10 -9
27 8 8 5 17 -10 32 -23 23 -30 82 -8 77 6 -1 9 -1 5 1 -5 3 -8 12 -8 21 0 13
-2 14 -9 3 -7 -10 -10 -11 -16 0 -5 7 0 19 12 29 18 14 19 19 7 35 -8 10 -13
36 -12 57 1 31 6 40 24 44 13 3 34 -2 51 -12 16 -10 23 -12 16 -4 -7 8 -13 24
-13 36 0 25 -35 38 -74 28 -21 -5 -24 -11 -21 -35 8 -62 8 -136 1 -148 -5 -7
-14 -10 -22 -7 -23 9 -16 -6 14 -31 l27 -23 -30 6 c-18 3 -25 2 -18 -3 22 -16
-3 -34 -50 -37 -55 -3 -70 -13 -42 -29 21 -12 26 -14 50 -16 10 -1 15 -12 15
-38 0 -29 -3 -34 -12 -25 -7 7 -25 12 -40 12 -15 0 -28 4 -28 9 0 5 -13 11
-29 14 -16 3 -36 14 -45 23 -13 12 -28 15 -62 11 -24 -2 -44 -1 -44 4 0 5 -6
9 -13 9 -18 0 -75 28 -83 41 -3 5 -13 7 -23 4 -12 -3 -20 4 -28 26 -10 25 -16
29 -32 24 -17 -5 -21 -2 -21 16 0 18 3 20 12 11 16 -16 28 -15 28 3 0 8 9 15
19 15 20 0 37 28 24 41 -11 10 -94 41 -115 42 -11 1 -18 9 -18 22 0 25 -56 80
-65 65 -9 -15 -25 -2 -25 21 0 10 7 19 15 19 8 0 15 -6 15 -12 0 -10 3 -10 9
0 5 8 25 14 45 15 39 1 50 21 16 30 -11 3 -20 13 -20 22 0 15 7 16 56 10 37
-4 59 -3 63 4 4 6 33 12 65 14 44 3 62 9 73 23 11 15 16 16 22 6 4 -8 28 -14
54 -15 25 -1 43 -5 40 -9 -2 -5 5 -8 16 -8 11 0 23 5 27 12 5 7 2 9 -7 6 -17
-6 -56 18 -46 28 4 4 13 1 22 -6 13 -11 15 -7 15 26 0 36 1 37 14 18 8 -11 16
-31 18 -44 2 -20 7 -14 21 29 21 65 23 125 4 118 -8 -3 -14 1 -14 9 0 8 6 14
14 14 7 0 13 -5 13 -10 0 -6 12 -9 28 -8 31 3 31 2 7 -87 -16 -61 -41 -115
-58 -126 -5 -4 -6 -12 -2 -18 5 -9 10 -9 22 0 12 11 13 9 8 -14 -6 -24 -4 -27
19 -27 14 0 26 4 26 9 0 5 22 9 49 8 27 -1 47 -5 45 -9 -2 -4 0 -9 6 -13 5 -3
10 0 10 9 0 8 5 16 12 18 6 2 11 18 10 36 0 22 6 36 20 46 19 14 20 21 15 118
-4 66 -3 97 3 88 9 -13 10 -13 10 1 0 8 -7 24 -15 35 -17 23 -19 60 -4 70 7 4
8 9 1 13 -5 3 -13 49 -16 101 -4 52 -14 116 -23 143 -12 34 -14 50 -6 58 7 7
8 21 3 40 -5 17 -5 27 0 24 17 -11 22 17 5 35 -11 12 -13 20 -5 25 8 5 7 11
-2 22 -10 13 -8 14 12 11 19 -2 26 -11 32 -38z m-1513 -303 c5 -13 12 -46 16
-73 10 -71 36 -177 46 -188 5 -6 9 -32 9 -59 0 -26 5 -57 10 -67 6 -11 13 -45
16 -77 6 -51 10 -61 40 -83 18 -14 34 -29 34 -33 0 -5 -4 -6 -9 -3 -5 3 -11
-1 -15 -9 -3 -8 -1 -17 4 -20 6 -4 10 -1 10 4 0 6 3 11 8 11 7 0 9 -3 51 -83
14 -26 31 -47 37 -47 7 0 17 -8 23 -17 8 -15 23 -18 85 -17 53 0 77 -4 80 -13
3 -7 14 -13 23 -13 25 0 63 -28 63 -46 0 -8 9 -28 21 -43 30 -41 32 -139 3
-177 -28 -38 -40 -40 -48 -8 l-7 28 -17 -26 c-16 -25 -19 -26 -55 -13 -38 13
-122 13 -187 0 l-35 -7 27 16 c15 8 38 16 50 19 20 3 21 4 6 11 -10 5 -26 5
-35 1 -30 -13 -53 -12 -64 2 -6 7 -18 13 -25 13 -12 0 -12 -4 -2 -20 11 -16
10 -23 -6 -37 -10 -10 -16 -13 -13 -7 10 17 -46 4 -59 -14 -9 -12 -13 -12 -19
-2 -4 7 -4 15 1 19 5 3 9 22 9 41 0 31 3 35 28 38 24 3 33 16 28 45 0 4 9 7
22 7 18 0 19 2 7 10 -13 9 -13 10 1 10 8 0 20 -5 27 -12 8 -8 12 -9 12 -1 0
14 -66 37 -80 28 -6 -4 -9 -1 -8 7 2 9 -10 14 -37 15 -22 1 -77 5 -121 9 -63
5 -83 3 -90 -7 -14 -22 -15 -47 -2 -55 8 -5 9 -2 5 9 -5 12 -1 17 13 17 18 0
20 -7 20 -57 0 -40 3 -53 10 -43 8 12 14 10 40 -15 27 -26 29 -31 16 -41 -17
-12 -11 -24 11 -24 7 0 13 11 13 26 0 22 3 24 14 15 11 -10 12 -19 4 -41 -17
-51 -109 -80 -139 -43 -8 9 -41 29 -74 45 -46 21 -75 28 -122 28 -70 0 -163
-17 -163 -30 0 -5 -21 -12 -47 -16 -54 -8 -102 12 -129 54 -38 59 -8 191 55
245 32 26 91 38 91 17 0 -5 14 -10 30 -10 23 0 33 -6 39 -24 5 -13 17 -26 25
-29 9 -4 16 -14 17 -24 0 -14 2 -13 9 5 5 12 17 22 25 22 21 0 42 21 47 46 2
10 19 27 38 36 19 9 28 17 20 18 -13 0 -13 1 0 10 11 7 17 5 21 -7 4 -13 10
-11 32 13 15 16 27 37 27 46 0 10 5 18 10 18 6 0 10 16 10 36 0 19 4 33 9 29
5 -3 12 -1 15 4 4 5 -1 11 -10 13 -14 3 -13 7 5 30 27 34 27 68 1 75 -25 7
-26 19 -2 25 21 6 36 76 25 116 -3 13 2 33 11 47 9 14 12 25 6 25 -5 0 -10 6
-10 14 0 9 7 13 18 11 15 -3 17 2 14 26 -2 16 -10 29 -18 29 -20 0 -17 8 11
34 31 29 31 33 -2 62 -26 22 -26 24 -9 42 9 11 19 33 21 48 2 16 4 30 4 32 1
1 17 2 36 2 28 0 37 -5 44 -23z m-542 -1692 c10 -14 26 -35 37 -48 l18 -22 -6
22 c-5 15 -1 28 13 42 17 17 29 20 68 14 84 -11 89 -15 102 -83 11 -55 11 -64
-5 -81 -26 -29 -77 -25 -117 11 -35 30 -57 38 -57 21 0 -17 -40 -23 -69 -12
-14 7 -33 22 -41 34 -20 32 -30 99 -18 115 17 20 56 14 75 -13z m868 -13 c6
-4 16 -20 24 -37 l13 -30 16 33 c26 54 92 57 92 5 0 -43 -35 -93 -65 -93 -14
0 -25 5 -25 10 0 17 -35 11 -47 -9 -18 -29 -72 -35 -95 -12 -18 21 -25 94 -10
117 12 19 78 30 97 16z m-395 -28 c11 -28 13 -114 4 -138 -5 -13 -23 -16 -94
-16 -86 0 -89 1 -109 29 -22 30 -26 65 -15 120 l7 31 98 0 c98 0 100 -1 109
-26z m261 -4 c4 -14 7 -51 8 -82 1 -65 4 -63 -99 -71 -123 -10 -151 12 -143
115 6 66 0 63 133 63 92 0 94 -1 101 -25z m-827 -357 c3 -7 14 -13 25 -13 14
0 19 -5 15 -15 -4 -9 0 -15 10 -15 9 0 16 5 16 10 0 17 25 11 38 -10 7 -11 21
-20 31 -20 11 0 22 -4 25 -9 3 -5 20 -11 38 -14 18 -3 58 -12 88 -21 30 -9 77
-16 103 -16 34 0 49 -5 54 -15 7 -19 5 -20 -29 -29 -23 -5 -28 -3 -28 11 0 25
-27 -29 -33 -64 -4 -26 -4 -26 -6 5 -1 39 -15 41 -35 5 -17 -32 -21 -26 -6 11
5 15 6 28 0 31 -11 7 -30 -27 -30 -53 0 -11 -7 -25 -15 -32 -12 -10 -13 -7 -5
22 14 48 12 53 -11 27 l-21 -24 5 23 c6 28 -18 30 -33 3 -8 -16 -6 -21 10 -26
11 -4 20 -15 20 -27 0 -17 -4 -19 -26 -14 -19 5 -30 2 -40 -11 -12 -16 -13
-14 -14 25 l0 42 -40 0 c-31 0 -40 -4 -41 -17 -1 -10 -6 -3 -11 15 -11 33 -34
42 -56 20 -9 -9 -12 -6 -12 15 0 25 3 27 40 27 22 0 40 5 40 11 0 6 -18 9 -47
8 -40 -3 -48 0 -51 15 -2 10 1 23 7 29 6 6 11 29 10 52 0 22 -3 34 -6 28 -4
-12 -33 -19 -33 -9 0 31 44 46 54 19z m1602 -587 c-3 -44 -8 -169 -11 -276 -8
-253 -13 -278 -45 -207 l-14 32 -7 -25 c-4 -14 -8 -23 -9 -20 -9 20 -7 296 2
307 5 7 8 20 4 28 -3 9 -2 13 4 10 6 -4 10 11 11 37 1 24 2 50 3 58 2 8 3 29
4 45 2 21 5 26 11 17 6 -11 10 -10 15 4 4 11 2 20 -3 22 -17 6 -13 32 4 32 8
0 15 7 15 16 0 8 5 12 11 9 7 -5 9 -36 5 -89z m-2646 -1037 c0 -10 4 -20 9
-23 5 -3 11 -19 13 -35 2 -17 1 -28 -4 -25 -4 3 -8 15 -9 27 0 21 -1 21 -8 2
-5 -12 -3 -27 4 -38 7 -10 11 -27 8 -38 -3 -10 0 -19 6 -19 6 0 11 5 11 12 0
6 3 8 7 4 5 -4 -1 -14 -12 -23 -20 -15 -20 -15 0 -11 16 2 20 -2 18 -25 -2
-28 -2 -28 23 -13 20 14 24 14 24 2 0 -8 -7 -19 -16 -24 -14 -8 -14 -10 0 -25
9 -8 16 -20 16 -26 0 -6 7 -11 15 -11 8 0 15 5 15 11 0 6 -7 17 -15 25 -16 17
-20 34 -7 34 5 0 16 -16 25 -35 9 -19 12 -35 7 -35 -16 0 -12 -44 6 -66 15
-19 15 -19 11 1 -3 11 -8 28 -12 38 -4 9 -3 17 1 17 16 -1 76 -115 82 -155 4
-29 7 -34 12 -20 6 17 8 16 22 -11 8 -16 23 -43 34 -61 24 -40 13 -52 -22 -24
-15 11 -37 21 -49 21 -12 0 -43 7 -69 16 -26 9 -55 14 -66 11 -20 -5 -18 -11
-55 163 -7 36 -17 88 -21 115 -4 28 -8 52 -9 55 -1 5 -14 136 -20 205 -4 37
-3 38 11 21 8 -11 14 -28 14 -37z m158 -557 c9 -1 11 -9 7 -22 -6 -18 -2 -20
54 -20 34 0 61 -4 61 -10 0 -14 27 -12 33 3 3 7 9 2 15 -13 6 -14 11 -21 11
-15 1 5 8 0 16 -12 8 -12 12 -29 9 -37 -4 -12 -2 -15 9 -10 9 3 23 -6 37 -25
12 -17 17 -31 12 -31 -10 0 -75 31 -82 39 -3 3 -17 12 -32 20 -28 14 -37 36
-18 43 5 2 -4 11 -20 20 -25 14 -31 14 -41 2 -9 -11 -6 -14 17 -15 29 -1 29
-1 -5 -11 -43 -12 -61 -5 -54 21 6 24 -21 30 -30 7 -6 -15 -57 -19 -57 -4 0 5
-5 6 -10 3 -11 -7 -26 22 -16 32 3 4 12 1 18 -5 7 -7 23 -12 38 -11 l25 1 -25
7 c-14 4 -24 13 -22 20 1 7 -7 10 -23 7 -16 -3 -25 0 -25 8 0 11 44 14 98 8z"/>
<path d="M2254 4428 c-41 -19 8 -101 51 -84 14 5 19 -4 16 -31 -1 -7 4 -13 12
-13 28 0 77 -74 77 -116 0 -15 13 -41 30 -61 17 -18 30 -28 30 -21 0 9 3 9 10
-2 7 -10 8 -4 2 20 -4 19 -7 52 -7 72 1 20 -4 36 -9 35 -5 -1 -12 7 -14 18 -2
11 -11 27 -19 36 -11 14 -12 18 -1 22 10 3 7 16 -12 53 -37 70 -107 101 -166
72z"/>
<path d="M2215 4290 c-4 -6 -10 -8 -15 -5 -4 3 -11 -11 -14 -30 -4 -19 -11
-35 -16 -35 -6 0 -10 -14 -10 -31 0 -19 4 -28 11 -23 7 4 7 -1 -1 -16 -10 -18
-8 -25 7 -42 10 -12 14 -22 7 -25 -10 -3 7 -207 19 -219 3 -3 5 32 5 76 1 94
19 229 34 247 5 7 7 17 3 22 -3 6 4 20 15 31 16 16 18 24 10 40 -11 21 -45 27
-55 10z"/>
<path d="M2350 4159 c0 -6 4 -19 10 -29 12 -22 -14 -54 -37 -46 -16 6 -48 -58
-38 -74 4 -6 -1 -10 -9 -10 -30 0 -15 -274 18 -338 27 -52 71 -92 101 -92 15
0 43 -11 61 -25 18 -14 40 -25 48 -25 8 0 20 -9 26 -20 6 -11 15 -20 20 -20 6
0 10 9 10 20 0 11 -4 20 -10 20 -5 0 -10 9 -10 20 0 10 -13 42 -30 70 -31 52
-38 76 -20 65 6 -3 10 0 10 7 0 7 3 23 6 36 4 12 2 22 -4 22 -5 0 -13 -11 -16
-24 -4 -18 -11 -23 -25 -19 -10 3 -22 0 -25 -5 -4 -7 -16 -1 -31 12 -20 19
-25 33 -25 73 0 64 55 173 87 173 12 0 14 8 9 40 -4 28 -23 61 -62 110 -58 72
-64 77 -64 59z"/>
<path d="M6050 1235 c0 -3 31 -67 69 -143 50 -98 73 -155 80 -201 6 -35 13
-66 15 -69 10 -9 296 241 296 259 0 5 -6 9 -13 9 -8 0 -28 7 -45 15 -50 26
-222 85 -222 77 0 -4 -4 -2 -8 4 -4 7 -23 19 -44 27 l-36 15 46 -47 c50 -51
92 -104 92 -117 0 -4 -23 16 -52 45 -28 28 -78 69 -110 91 -57 40 -68 45 -68
35z"/>
<path d="M2358 1067 c-30 -15 -79 -48 -107 -72 -29 -25 -57 -45 -62 -45 -5 0
-9 -7 -9 -15 0 -8 -8 -15 -17 -15 -10 0 -70 -53 -135 -118 -64 -65 -128 -124
-142 -131 -14 -8 -35 -23 -46 -34 -27 -24 -32 -19 -21 19 5 16 10 25 10 21 1
-5 18 8 38 27 21 19 34 38 30 42 -4 4 -20 -5 -35 -19 -16 -15 -33 -27 -39 -27
-6 0 -25 -13 -43 -30 -18 -16 -36 -30 -41 -30 -26 0 2 -23 109 -87 64 -39 170
-99 236 -133 94 -50 120 -60 127 -49 5 8 9 20 9 27 0 7 4 20 10 30 5 9 14 51
20 92 20 141 27 175 45 225 22 63 88 210 130 291 32 61 32 62 10 60 -13 0 -47
-14 -77 -29z"/>
<path d="M5967 1073 c-10 -10 -8 -68 3 -98 10 -26 9 -27 -15 -21 -18 5 -25 2
-25 -9 0 -8 8 -15 18 -15 13 0 14 -2 3 -9 -9 -6 -13 -32 -14 -84 -1 -46 -5
-73 -11 -70 -18 12 4 -59 26 -83 29 -30 56 -31 68 -1 5 12 9 16 9 8 1 -9 10
-7 32 10 30 24 31 26 31 106 0 137 -14 223 -37 223 -8 0 -21 10 -31 23 -10 13
-14 16 -11 5 3 -9 1 -19 -6 -21 -9 -3 -8 -13 3 -38 18 -39 15 -79 -6 -79 -8 0
-14 -3 -14 -8 0 -13 35 -39 48 -34 8 2 12 -9 11 -35 0 -30 -2 -34 -9 -17 -4
11 -20 28 -34 37 -20 13 -26 26 -26 52 0 19 4 35 8 35 5 0 9 7 9 15 0 8 -5 15
-10 15 -6 0 -7 20 -3 50 6 46 0 61 -17 43z"/>
</g>
</svg>
